# xmcd
#
# Track frame offsets:
#	150
#	11071
#	23396
#	36262
#	46760
#	59022
#	71642
#	86432
#	104250
#	118694
#	135001
#	150124
#
# Disc length: 2143 seconds
#
# Revision: 1
# Processed by: cddbd v1.5.2PL0 Copyright (c) Steve Scherf et al.
# Submitted via: audiograbber 1.83.01
#
DISCID=87085d0c
DTITLE=Danny Hooper - Eleven Roses
DYEAR=1997
DGENRE=Country
TTITLE0=Whats a Girl Gonna Do (With a Boy Like That)
TTITLE1=Grandpas Mandolin
TTITLE2=He's Buying Roses Again
TTITLE3=Burning Memories
TTITLE4=I Know a Good Thing (When It's Gone)
TTITLE5=Honky Tonk Saturday Night
TTITLE6=Beer Commercial
TTITLE7=Blue Wing
TTITLE8=What's Her Name
TTITLE9=Since You Left Me
TTITLE10=Eleven Roses
TTITLE11=Big News Back Home
EXTD=
EXTT0=
EXTT1=
EXTT2=\n
EXTT3=
EXTT4=
EXTT5=
EXTT6=
EXTT7=
EXTT8=
EXTT9=
EXTT10=
EXTT11=
PLAYORDER=
